#!OML:ASF I:\Actors\actors\Patient Classification 1\Patient 1\Session 1\Subject1.ASF
:FULLY-SPECIFIED
:DEGREES
809
root 0.731016 17.5231 8.8947 10.6618 -3.36087 -11.2256
lowerback 2.24681 1.26627 7.28742
upperback -7.46834 2.42401 2.7644
thorax -9.02119 0.781317 -1.36993
lowerneck -17.3653 -4.30523 -2.11071
upperneck 26.9485 -7.49899 6.34305
head 12.0957 -2.76997 1.56393
rclavicle -6.70898e-016 -1.90833e-014
rhumerus 11.0647 45.1068 -78.4161
rradius 56.9636
rwrist -3.76608
rhand -13.3612 -43.6989
rfingers 7.12502
rthumb 12.745 -73.2899
lclavicle -6.70898e-016 -1.90833e-014
lhumerus 9.47519 -33.3247 86.4626
lradius 48.9716
lwrist 37.8921
lhand -43.9613 1.30697
lfingers 7.12502
lthumb -16.7839 30.6015
rfemur -7.45661 26.182 26.1932
rtibia 2.31882
rfoot -9.62037 -23.7939
rtoes 0.661433
lfemur 4.7906 -50.1531 -9.57364
ltibia -5.18753
lfoot -31.4021 58.1276
ltoes 18.9095
810
root 0.721201 17.5358 8.88502 10.9357 -3.85972 -10.2927
lowerback 1.9318 1.44118 6.04384
upperback -7.54669 2.53278 2.53156
thorax -8.93096 0.915976 -0.931599
lowerneck -17.5908 -4.34849 -2.1406
upperneck 27.2726 -7.60752 6.4285
head 12.2821 -2.7959 1.58235
rclavicle 9.98893e-015 -4.25399e-014
rhumerus 9.11454 43.4172 -82.1803
rradius 53.4246
rwrist -3.33873
rhand -6.58483 -43.7348
rfingers 7.12502
rthumb 19.2701 -72.8001
lclavicle 9.98893e-015 -4.25399e-014
lhumerus 10.7323 -35.4943 85.8326
lradius 45.0142
lwrist 45.6572
lhand -38.7646 12.3642
lfingers 7.12502
lthumb -11.7767 42.0131
rfemur -8.1682 26.8725 24.7517
rtibia 2.57926
rfoot -9.72937 -24.1139
rtoes 0.892834
lfemur 4.27437 -50.7404 -10.3082
ltibia -4.94935
lfoot -33.3854 58.5067
ltoes 20.3826
811
root 0.722478 17.534 8.90058 11.0052 -3.86328 -9.90649
lowerback 1.44096 1.47354 5.67274
upperback -7.45079 2.49774 2.43276
thorax -8.54098 0.933085 -0.813734
lowerneck -17.7911 -4.39567 -2.25086
upperneck 27.2075 -7.6733 6.55303
head 12.3122 -2.81668 1.63304
rclavicle -2.30839e-014 1.27222e-014
rhumerus 8.76194 45.0816 -82.5251
rradius 51.852
rwrist -9.12392
rhand -2.80591 -47.0184
rfingers 7.12502
rthumb 22.9002 -75.6786
lclavicle -2.30839e-014 1.27222e-014
lhumerus 11.3591 -37.7021 85.2368
lradius 42.4745
lwrist 56.5843
lhand -38.4352 18.5728
lfingers 7.12502
lthumb -11.459 48.2396
rfemur -8.12152 26.7738 24.2858
rtibia 2.41167
rfoot -9.7514 -24.0943
rtoes 0.841275
lfemur 4.38955 -51.2262 -10.9374
ltibia -4.87097
lfoot -34.2662 58.7348
ltoes 20.9155
812
root 0.724399 17.5271 8.93157 10.9417 -3.56364 -9.69916
lowerback 0.94707 1.39166 5.56134
upperback -7.28518 2.32909 2.40481
thorax -8.07834 0.870848 -0.754329
lowerneck -18.1595 -4.4154 -2.35235
upperneck 27.2347 -7.70739 6.67092
head 12.4114 -2.81633 1.68291
rclavicle -1.96051e-014 -2.18663e-014
rhumerus 7.63395 45.8567 -83.6048
rradius 51.1059
rwrist -14.9898
rhand 0.126041 -50.4771
rfingers 7.12502
rthumb 25.7111 -78.7604
lclavicle -1.96051e-014 -2.18663e-014
lhumerus 10.8737 -39.2359 85.1901
lradius 41.6705
lwrist 65.015
lhand -41.4945 21.1134
lfingers 7.12502
lthumb -14.4082 50.5933
rfemur -7.61062 26.4007 24.2439
rtibia 1.97499
rfoot -9.77685 -24.0908
rtoes 0.883848
lfemur 4.87358 -51.6566 -11.6443
ltibia -4.89277
lfoot -34.0291 58.9765
ltoes 20.435
813
root 0.722935 17.5242 8.95321 10.9418 -3.45589 -9.40525
lowerback 0.704836 1.34613 5.23338
upperback -7.17861 2.22529 2.39324
thorax -7.83227 0.848274 -0.570785
lowerneck -18.5692 -4.4263 -2.38919
upperneck 27.2015 -7.69807 6.64616
head 12.4821 -2.8092 1.67369
rclavicle -3.40419e-015 -2.10712e-014
rhumerus 5.73752 45.5269 -85.4246
rradius 51.1814
rwrist -19.3101
rhand -0.88165 -53.9427
rfingers 7.12502
rthumb 24.7456 -82.3621
lclavicle -3.40419e-015 -2.10712e-014
lhumerus 9.52835 -40.8306 85.63
lradius 42.1536
lwrist 63.4664
lhand -42.5663 17.4546
lfingers 7.12502
lthumb -15.4406 46.8579
rfemur -7.35593 26.2635 23.9877
rtibia 1.7103
rfoot -9.8379 -24.1384
rtoes 1.03406
lfemur 5.21133 -52.14 -12.3286
ltibia -4.86993
lfoot -34.1507 59.3322
ltoes 20.1504
814
root 0.722115 17.5154 8.97883 10.6527 -3.4555 -8.28801
lowerback 1.20703 1.35358 4.3421
upperback -7.36095 2.20484 1.96639
thorax -8.33126 0.868127 -0.537102
lowerneck -18.5608 -4.51969 -2.40125
upperneck 27.1255 -7.83554 6.68532
head 12.4606 -2.86847 1.66686
rclavicle 5.11871e-015 2.94201e-014
rhumerus 2.56505 44.0574 -88.2693
rradius 51.797
rwrist -21.7698
rhand -0.888589 -56.2064
rfingers 7.12502
rthumb 24.739 -84.6267
lclavicle 5.11871e-015 2.94201e-014
lhumerus 7.09435 -42.5249 86.7521
lradius 43.1517
lwrist 54.3812
lhand -41.3103 18.9882
lfingers 7.12502
lthumb -14.2306 48.4807
rfemur -6.7533 25.9385 22.8774
rtibia 1.2923
rfoot -9.87171 -24.0993
rtoes 1.08543
lfemur 6.07705 -52.886 -14.5434
ltibia -4.61661
lfoot -34.7408 59.7327
ltoes 20.124
815
root 0.723087 17.4926 9.02923 9.57166 -3.26857 -5.53402
lowerback 1.49763 1.08909 1.62336
upperback -6.89296 1.64687 1.31803
thorax -8.04763 0.755715 0.337366
lowerneck -18.77 -4.47913 -2.43406
upperneck 26.8169 -7.72172 6.64104
head 12.3724 -2.82977 1.66789
rclavicle 8.24956e-015 -1.19271e-015
rhumerus 0.393759 42.8042 -90.218
rradius 52.7093
rwrist -22.9313
rhand -1.33643 -56.8558
rfingers 7.12502
rthumb 24.3097 -85.3343
lclavicle 8.24956e-015 -1.19271e-015
lhumerus 5.38146 -43.4812 87.3611
lradius 44.5707
lwrist 48.8549
lhand -40.9202 15.7229
lfingers 7.12502
lthumb -13.8547 45.2415
rfemur -4.85737 24.7929 20.2958
rtibia 0.2404
rfoot -9.8101 -23.771
rtoes 0.992783
lfemur 8.49176 -53.8479 -20.1805
ltibia -4.04169
lfoot -34.8136 60.0664
ltoes 19.6956
816
root 0.723929 17.5277 8.96966 11.5323 -3.11373 -9.44375
lowerback 0.494157 1.18665 5.34691
upperback -7.1324 2.00749 2.54792
thorax -7.67273 0.743541 -0.451179
lowerneck -19.2826 -4.34768 -2.45879
upperneck 26.4056 -7.45617 6.56111
head 12.2948 -2.72194 1.67367
rclavicle 7.91411e-015 2.70347e-014
rhumerus 2.7086 46.6303 -87.9774
rradius 53.2153
rwrist -27.7883
rhand -2.41367 -57.4644
rfingers 7.12502
rthumb 23.2766 -86.0774
lclavicle 7.91411e-015 2.70347e-014
lhumerus 4.71183 -43.0777 87.4528
lradius 45.9409
lwrist 47.9285
lhand -40.073 12.1284
lfingers 7.12502
lthumb -13.0382 41.701
rfemur -8.00971 26.6161 23.7107
rtibia 1.6791
rfoot -10.0412 -24.7789
rtoes 1.69699
lfemur 3.84941 -52.304 -11.1627
ltibia -4.71497
lfoot -33.8618 59.2929
ltoes 19.6928
817
root 0.729181 17.515 8.94623 11.5497 -3.55524 -8.74107
lowerback 1.66121 1.38691 5.01976
upperback -7.5856 2.33753 2.03437
thorax -8.82655 0.87516 -0.865736
lowerneck -19.2111 -4.49436 -2.52463
upperneck 26.5026 -7.75656 6.88149
head 12.3566 -2.81928 1.75757
rclavicle -5.76476e-015 -1.59028e-014
rhumerus -3.02933 41.6878 -92.16
rradius 56.2161
rwrist -24.2913
rhand 0.656358 -57.6557
rfingers 7.12502
rthumb 26.2189 -85.8647
lclavicle -5.76476e-015 -1.59028e-014
lhumerus 2.45822 -43.4107 88.3812
lradius 47.8328
lwrist 48.9941
lhand -39.5877 12.6379
lfingers 7.12502
lthumb -12.5703 42.2397
rfemur -8.47444 26.588 22.6383
rtibia 1.94997
rfoot -9.97501 -24.4525
rtoes 1.56026
lfemur 3.64872 -52.5346 -11.9364
ltibia -4.45314
lfoot -35.2072 59.3842
ltoes 20.8607
